# xmcd
#
# Track frame offsets: 
#        150
#        25322
#        37437
#        57898
#        72891
#        92212
#        109939
#        125226
#        139754
#        160998
#        179917
#
# Disc length: 2639 seconds
#
# Revision: 0
# Processed by: cddbd v1.5.2PL0 Copyright (c) Steve Scherf et al.
# Submitted via: ExactAudioCopy v0.99pb3
#
DISCID=ae0a4d0b
DTITLE=Lynnann and The Stallions - In Our Dust
DYEAR=2001
DGENRE=Blues
TTITLE0=Hey You
TTITLE1=Call Me At Midnight
TTITLE2=Made Up My Mind
TTITLE3=My Car Won't Start
TTITLE4=Cry You Away
TTITLE5=Steppin' Stone
TTITLE6=Feelin' Like
TTITLE7=Cathleen
TTITLE8=Lord Have Mercy
TTITLE9=On The Highway Again
TTITLE10=Road With No End
EXTD=
EXTT0=
EXTT1=
EXTT2=
EXTT3=
EXTT4=
EXTT5=
EXTT6=
EXTT7=
EXTT8=
EXTT9=
EXTT10=
PLAYORDER=
